<svg width="24" height="24" viewBox="0 0 24 24" fill="none" xmlns="http://www.w3.org/2000/svg">
<mask id="mask0_0_3900" style="mask-type:luminance" maskUnits="userSpaceOnUse" x="0" y="0" width="24" height="24">
<path fill-rule="evenodd" clip-rule="evenodd" d="M0 0H23.9996V23.8543H0V0Z" fill="white"/>
</mask>
<g mask="url(#mask0_0_3900)">
<path fill-rule="evenodd" clip-rule="evenodd" d="M23.9995 11.9995C23.9995 5.37182 18.6267 -0.000976602 11.999 -0.000976602C5.37133 -0.000976602 -0.0014649 5.37182 -0.0014649 11.9995C-0.0014649 17.9893 4.38694 22.9539 10.1239 23.8542V15.4684H7.07695V11.9995H10.1239V9.35565C10.1239 6.34803 11.9155 4.68671 14.6567 4.68671C15.9697 4.68671 17.343 4.9211 17.343 4.9211V7.87434H15.8298C14.339 7.87434 13.8741 8.79939 13.8741 9.74841V11.9995H17.2024L16.6703 15.4684H13.8741V23.8542C19.6111 22.9539 23.9995 17.9893 23.9995 11.9995Z" fill="#1877F2"/>
</g>
<path fill-rule="evenodd" clip-rule="evenodd" d="M16.6703 15.4684L17.2024 11.9995H13.8741V9.74841C13.8741 8.79939 14.339 7.87434 15.8298 7.87434H17.343V4.9211C17.343 4.9211 15.9697 4.68671 14.6567 4.68671C11.9155 4.68671 10.1239 6.34803 10.1239 9.35565V11.9995H7.07695V15.4684H10.1239V23.8542C10.7349 23.9501 11.3611 24 11.999 24C12.6369 24 13.2631 23.9501 13.8741 23.8542V15.4684H16.6703Z" fill="white"/>
</svg>
