<svg width="16" height="16" viewBox="0 0 16 16" fill="none" xmlns="http://www.w3.org/2000/svg">
<path fill-rule="evenodd" clip-rule="evenodd" d="M8.55394 3.79199L9.72327 6.25866L12.1179 6.51266C12.3659 6.53671 12.5746 6.70849 12.6458 6.94717C12.7171 7.18586 12.6368 7.44393 12.4426 7.59999L10.5333 9.16999L11.1239 11.8093C11.1779 12.0491 11.0833 12.298 10.8837 12.4414C10.684 12.5848 10.418 12.595 10.2079 12.4673L7.99994 11.124L5.78994 12.4667C5.5798 12.5941 5.31388 12.5838 5.11423 12.4405C4.91457 12.2972 4.81975 12.0485 4.87327 11.8087L5.46661 9.16999L3.55727 7.59999C3.36451 7.44353 3.28523 7.1862 3.35652 6.94839C3.4278 6.71057 3.63556 6.53929 3.88261 6.51466L6.27661 6.26066L7.44594 3.79199C7.54754 3.57812 7.76317 3.44183 7.99994 3.44183C8.23671 3.44183 8.45234 3.57812 8.55394 3.79199Z" fill="white"/>
</svg>
