<svg width="16" height="16" viewBox="0 0 16 16" fill="none" xmlns="http://www.w3.org/2000/svg">
<path fill-rule="evenodd" clip-rule="evenodd" d="M8.55382 3.79201L9.72315 6.25867L12.1178 6.51267C12.3658 6.53673 12.5744 6.7085 12.6457 6.94719C12.717 7.18587 12.6366 7.44395 12.4425 7.60001L10.5332 9.17001L11.1238 11.8093C11.1778 12.0492 11.0832 12.298 10.8835 12.4414C10.6839 12.5848 10.4179 12.595 10.2078 12.4673L7.99982 11.124L5.78982 12.4667C5.57968 12.5941 5.31376 12.5838 5.11411 12.4405C4.91445 12.2972 4.81963 12.0485 4.87315 11.8087L5.46649 9.17001L3.55715 7.60001C3.36439 7.44354 3.28511 7.18622 3.35639 6.9484C3.42768 6.71059 3.63544 6.5393 3.88249 6.51467L6.27649 6.26067L7.44582 3.79201C7.54742 3.57814 7.76304 3.44185 7.99982 3.44185C8.23659 3.44185 8.45222 3.57814 8.55382 3.79201Z" fill="#C1C7D0"/>
</svg>
