<svg width="90" height="90" viewBox="0 0 90 90" fill="none" xmlns="http://www.w3.org/2000/svg">
<path d="M90 44.9999C90 69.829 69.8623 89.9998 44.9785 89.9998C20.1377 89.9573 0 69.829 0 44.9999C0 20.1708 20.1377 0 45.0215 0C69.8623 0 90 20.1281 90 44.9999Z" fill="white"/>
<path d="M49.4831 19.4445C49.0988 19.3591 47.1775 19.0599 44.9574 19.0599C42.7374 19.0599 40.8161 19.3591 40.4319 19.4445C40.2185 19.4872 40.1329 19.2735 40.3037 19.1454C40.4744 19.0172 44.9574 15.5985 44.9574 15.5985C44.9574 15.5985 49.4404 19.0172 49.6112 19.1454C49.7819 19.2735 49.6964 19.4872 49.4831 19.4445ZM41.67 41.7095C41.67 41.7095 41.4137 41.7949 41.3712 42.0086C42.3103 42.7351 42.9508 44.4018 44.9148 44.4018C46.8789 44.4018 47.5192 42.7351 48.4585 42.0086C48.4158 41.7949 48.1597 41.7095 48.1597 41.7095C48.1597 41.7095 46.9214 42.0086 44.9148 42.0086C42.9081 42.0085 41.67 41.7095 41.67 41.7095ZM44.9574 38.9316C44.4023 38.9316 44.2743 38.718 43.9326 38.718C43.5911 38.718 42.9079 39.0172 42.7372 39.2734C42.7372 39.4018 42.7798 39.5299 42.9079 39.6155C43.7191 39.7436 44.0606 40.1709 44.9999 40.1709C45.9392 40.1709 46.2807 39.7436 47.0919 39.6155C47.1773 39.5301 47.22 39.4018 47.2626 39.2734C47.1344 39.0172 46.4087 38.718 46.0672 38.718C45.5979 38.718 45.4697 38.9316 44.9574 38.9316ZM89.8291 47.4357C89.7866 48.5043 89.6585 49.5724 89.5303 50.6409C84.4498 51.4957 82.6139 46.9655 77.4051 47.1795C77.7065 48.2941 77.9629 49.4203 78.1738 50.5555C82.4859 50.5555 84.1935 54.5726 88.9754 53.9743C88.7218 55.1958 88.4228 56.4075 88.0788 57.6067C84.2791 57.9913 82.9554 54.2305 78.6007 54.3161C78.6434 54.9572 78.6434 55.5555 78.6434 56.1965V57.2649C82.3578 57.2222 83.5959 60.6836 87.1395 60.5128C86.7126 61.7092 86.2002 62.9059 85.6453 64.0598C83.0837 63.9315 82.2298 60.6409 78.3446 60.8974C78.2165 61.7521 78.0883 62.564 77.9177 63.3759C81.2905 63.1196 82.0162 66.239 84.4499 66.4957C83.8521 67.6067 83.1691 68.7179 82.4859 69.7863C81.0344 69.0171 79.7963 66.7094 77.1065 66.5386C77.4053 65.6838 77.6189 64.8292 77.8324 63.9317C75.4416 63.9317 72.6664 62.9915 70.3609 60.8975C71.0866 56.624 64.4689 52.2651 64.4689 49.1453C64.4689 45.7693 66.1767 43.889 66.1767 39.3162C66.1767 35.8974 64.5115 32.2222 62.0354 29.7009C61.5658 29.2308 61.0536 28.8035 60.4983 28.4616C62.7611 31.282 64.5543 34.658 64.5543 38.5043C64.5543 42.8205 62.5478 45.0855 62.5478 49.0599C62.5478 53.0341 68.3541 56.4957 68.3541 60.5984C68.3541 62.2223 67.8419 63.8034 66.134 66.8804C68.7383 69.4873 72.1539 70.8975 74.3313 70.8975C75.0572 70.8975 75.4414 70.6838 75.6975 70.1282C75.9109 69.6581 76.1247 69.1454 76.338 68.6752C78.6861 68.7607 79.7963 70.8975 81.0771 71.7948C80.3512 72.7777 79.6254 73.6752 78.8143 74.5727C77.9177 73.5898 76.765 71.9659 75.0145 71.4958C74.7157 72.0942 74.3742 72.6923 74.0327 73.2908C75.527 73.6754 76.5516 75.2138 77.3201 76.1968C76.4662 77.0943 75.5696 77.9062 74.673 78.7183C74.1179 77.8208 73.2215 76.7097 72.1968 76.0687C71.8125 76.5816 71.4281 77.0516 71.0441 77.5218C71.8979 78.1201 72.6664 79.1458 73.1361 80.0004C72.0686 80.8551 70.9585 81.667 69.8485 82.4364C69.2934 77.8637 63.0601 74.7441 64.7252 69.4449C64.1701 70.3851 63.5296 71.5389 63.5296 72.9493C63.5296 76.7955 67.6282 79.8297 67.9272 83.633C67.0733 84.1459 66.2194 84.6159 65.3228 85.086C65.1948 80.898 60.8398 76.3253 60.8398 72.8639C60.8398 69.0176 65.8779 65.1716 65.8779 60.6416C65.8779 56.1118 60.0714 52.9493 60.0714 48.9752C60.0714 45.0008 62.5478 42.6931 62.5478 37.6075C62.5478 33.8896 60.7973 30.0863 58.0221 27.6929C57.5524 27.2656 57.0828 26.9238 56.485 26.6246C59.0893 29.7444 60.5837 32.5221 60.5837 36.7954C60.5837 41.5819 57.7658 44.2742 57.7658 48.9323C57.7658 53.6331 63.4442 56.24 63.4442 60.5989C63.4442 64.9577 58.15 68.6758 58.15 73.1629C58.15 77.2655 62.8037 81.3253 62.8891 86.1972C61.8644 86.6245 60.8396 87.052 59.7724 87.4365C60.37 82.522 55.1186 77.4793 55.1186 73.4622C55.1186 69.1032 60.6261 65.3426 60.6261 60.5989C60.6261 55.8981 55.0331 53.6758 55.0331 48.8467C55.0331 44.0175 58.4487 41.3254 58.4487 35.9834C58.4487 31.7954 56.3994 28.0774 53.3681 25.7269C53.3255 25.6842 53.2399 25.6415 53.1974 25.5986C52.8984 25.3851 52.685 25.6413 52.8984 25.8978C55.0333 28.5472 56.1433 31.2397 56.1433 35.214C56.1433 40.1284 52.2154 44.1029 52.2154 48.8465C52.2154 54.4448 57.5095 56.0259 57.5095 60.6413C57.5095 65.214 51.8313 68.8892 51.8313 73.761C51.8313 78.2908 57.2107 83.291 56.2714 88.5045C55.204 88.8037 54.094 89.0174 52.984 89.2312C54.0088 82.7354 48.7146 78.0772 48.7146 73.8039C48.7146 69.1885 54.5637 65.0858 54.5637 60.5987C54.5637 56.3679 50.3369 54.9577 49.7819 50.6415C49.6964 50.0431 49.2268 49.6158 48.5865 49.7013C47.7326 49.8723 46.6226 50.4277 44.9148 50.4277C43.2071 50.4277 42.0969 49.8723 41.2432 49.7013C40.6027 49.5729 40.1331 50.0431 40.0476 50.6415C39.4926 55.0004 35.2659 56.3679 35.2659 60.5987C35.2659 65.0858 41.1149 69.1885 41.1149 73.8039C41.1149 78.0347 35.8635 82.7355 36.8455 89.2312C35.7355 89.0174 34.6681 88.8039 33.5579 88.5045C32.6188 83.291 37.9982 78.2908 37.9982 73.761C37.9982 68.8892 32.3198 65.214 32.3198 60.6413C32.3198 56.0688 37.6139 54.4448 37.6139 48.8465C37.6139 44.1029 33.686 40.1284 33.686 35.214C33.686 31.2397 34.8387 28.5472 36.9309 25.8978C37.1443 25.6413 36.8884 25.3849 36.6321 25.5986C36.5894 25.6413 36.504 25.6841 36.4613 25.7269C33.4727 28.0346 31.3807 31.7953 31.3807 35.9834C31.3807 41.3252 34.7964 44.0175 34.7964 48.8467C34.7964 53.6758 29.2032 55.8981 29.2032 60.5989C29.2032 65.2997 34.7108 69.0604 34.7108 73.4622C34.7108 77.4793 29.4595 82.522 30.0571 87.4365C28.9897 87.052 27.9651 86.6674 26.9404 86.1972C27.0258 81.3253 31.6795 77.2655 31.6795 73.1629C31.6795 68.6758 26.3853 64.9577 26.3853 60.5989C26.3853 56.24 32.0635 53.5904 32.0635 48.9323C32.0635 44.2314 29.2458 41.5819 29.2458 36.7954C29.2458 32.5219 30.7402 29.7015 33.3443 26.6246C32.7893 26.9238 32.2771 27.2656 31.8074 27.6929C29.1176 30.0863 27.3672 33.8896 27.3672 37.6075C27.3672 42.6929 29.8436 45.0006 29.8436 48.9752C29.8436 52.9493 24.0371 56.1118 24.0371 60.6416C24.0371 65.1716 29.0749 69.0178 29.0749 72.8639C29.0749 76.3255 24.7628 80.898 24.5919 85.086C23.6954 84.6159 22.8417 84.1459 21.9876 83.633C22.3291 79.8297 26.3851 76.7953 26.3851 72.9493C26.3851 71.5389 25.7446 70.3851 25.1896 69.4449C26.8548 74.7441 20.6213 77.8637 20.0663 82.4364C18.9136 81.667 17.8461 80.8551 16.7787 80.0004C17.2483 79.1456 18.0168 78.1201 18.8707 77.5218C18.4865 77.0518 18.1022 76.5389 17.718 76.0687C16.7362 76.667 15.8394 77.8208 15.2418 78.7183C14.3386 77.8999 13.456 77.0592 12.5947 76.1968C13.3632 75.2139 14.3877 73.7183 15.8821 73.2908C15.5406 72.6925 15.1991 72.1371 14.9002 71.4958C13.1923 71.9659 11.9971 73.5898 11.1005 74.5727C10.2893 73.6752 9.56339 72.735 8.83764 71.7948C10.1612 70.94 11.2284 68.8034 13.5767 68.6752C13.7901 69.1881 13.9609 69.658 14.217 70.1282C14.4733 70.6838 14.8575 70.8975 15.5835 70.8975C17.7609 70.8975 21.1764 69.4871 23.7806 66.8804C22.0728 63.8036 21.5606 62.2223 21.5606 60.5984C21.5606 56.4957 27.367 53.0769 27.367 49.0599C27.367 45.0855 25.3604 42.8205 25.3604 38.5043C25.3604 34.6153 27.1107 31.282 29.4163 28.4616C28.8612 28.8035 28.349 29.2308 27.8793 29.7009C25.4029 32.2222 23.7381 35.8974 23.7381 39.3162C23.7381 43.8889 25.4458 45.7691 25.4458 49.1453C25.4458 52.2651 18.8281 56.624 19.5968 60.8975C17.2912 62.9915 14.5162 63.9317 12.1252 63.9317C12.3386 64.8292 12.5949 65.6838 12.851 66.5386C10.1186 66.6667 8.88053 69.0171 7.47157 69.7863C6.74582 68.7179 6.10532 67.6067 5.50771 66.4957C7.94122 66.2392 8.66715 63.1196 12.0398 63.3759C11.8691 62.564 11.6983 61.7092 11.6129 60.8974C7.72766 60.6409 6.83107 63.9315 4.31213 64.0598C3.75705 62.9059 3.2874 61.7094 2.81774 60.5128C6.36141 60.6836 7.59953 57.2222 11.314 57.2649V56.1965C11.314 55.5555 11.314 54.9145 11.3566 54.3161C7.00174 54.2307 5.63567 57.9915 1.87844 57.6067C1.53455 56.4075 1.23548 55.1958 0.981841 53.9743C5.76362 54.5726 7.47139 50.5555 11.7835 50.5555C11.9969 49.4017 12.2105 48.2905 12.552 47.1795C7.34326 46.9657 5.50735 51.4957 0.426763 50.6409C0.298627 49.5724 0.213382 48.5043 0.127957 47.4357C6.01972 48.1197 8.23985 43.2478 13.662 43.8461C14.1743 42.5641 14.7721 41.3249 15.4124 40.128C8.66679 38.9316 6.36124 44.5726 0.0852454 43.7178C0.683393 19.4445 20.5363 0 44.9574 0C69.3359 0 89.1888 19.4445 89.8719 43.718C83.5959 44.5728 81.2903 38.9316 74.5445 40.1282C75.2275 41.3249 75.7828 42.5642 76.295 43.8463C81.6745 43.2478 83.8947 48.1197 89.8291 47.4357ZM25.6169 28.5897C22.3295 27.2222 18.3161 27.5641 14.9008 29.7437C14.3884 26.5385 12.6379 23.718 10.1617 22.0087C9.8202 21.7522 9.47868 22.0087 9.47868 22.3933C9.99104 29.1453 6.06314 34.9572 1.23865 40.1282C6.23381 41.624 10.4607 35.2138 16.9075 37.4361C19.2483 33.982 22.1997 30.9841 25.6169 28.5897ZM44.9574 24.5299C40.7734 24.5299 37.2724 26.8803 36.3758 29.9572C36.2904 30.171 36.4185 30.3418 36.6746 30.2135C37.4433 29.8716 38.297 29.7008 39.1936 29.7008C40.9015 29.7008 42.3957 30.3418 43.2923 31.4101C43.6765 32.6922 43.7193 34.5724 43.2923 35.641C42.6093 35.4699 42.353 34.957 41.67 34.957C40.9869 34.957 40.4744 35.427 39.2792 35.427C38.1265 35.427 37.9984 34.8716 37.2299 34.8716C36.3331 34.8716 36.1624 35.8116 36.1624 36.8374C36.1624 41.4955 40.4319 47.9057 45.0001 47.9057C49.5258 47.9057 53.7952 41.4955 53.7952 36.8374C53.7952 35.8118 53.5816 34.9145 52.6425 34.7862C52.1728 35.1281 51.7457 35.4272 50.6785 35.4272C49.5258 35.4272 49.1841 34.9572 48.501 34.9572C47.6899 34.9572 47.7751 36.7093 46.7931 36.7949C46.1528 35.2137 46.1101 33.2053 46.6651 31.4103C47.5617 30.3418 49.0559 29.7009 50.7637 29.7009C51.703 29.7009 52.5567 29.8718 53.2826 30.2137C53.5389 30.342 53.6669 30.1711 53.5815 29.9574C52.5998 26.8803 49.0987 24.5299 44.9574 24.5299ZM51.5751 31.1966C50.593 31.1966 49.3976 31.4958 48.6719 32.3078C48.5865 32.5214 48.5865 32.8633 48.7146 33.077C50.5078 32.436 52.1301 32.436 52.8986 33.2906C53.3257 32.906 53.4537 32.5641 53.4537 32.1795C53.4537 31.6239 52.8132 31.1966 51.5751 31.1966ZM37.0163 33.3333C37.8702 32.4358 39.7488 32.4785 41.6702 33.2051C41.7556 32.2649 40.0478 31.1964 38.34 31.1964C37.1019 31.1964 36.5041 31.6237 36.5041 32.222C36.4613 32.6068 36.5894 32.9487 37.0163 33.3333ZM65.7496 17.5641C62.462 17.7779 59.6015 18.9316 57.296 20.8118C58.278 18.0341 59.5161 15.5983 61.0957 13.205C56.9117 13.6323 53.4108 15.1708 50.8491 17.8204L48.8426 12.5641L53.2826 8.63248L47.3482 8.20518L44.9572 2.64958L42.5664 8.20518L36.6319 8.63248L41.072 12.5641L39.0654 17.8204C36.5038 15.2137 33.0028 13.6752 28.8188 13.205C30.3985 15.5554 31.6366 17.9914 32.6186 20.8118C30.313 18.9316 27.4524 17.7779 24.165 17.5641C26.129 20.1283 27.8795 22.8206 29.2029 25.7266C29.331 26.0685 29.6725 26.1539 30.0141 25.9829C34.5397 23.7608 39.6203 22.4787 44.9997 22.4787C50.3791 22.4787 55.4599 23.7608 59.9854 25.9829C60.3269 26.1539 60.6257 26.0256 60.7966 25.7266C62.0352 22.8206 63.7857 20.1281 65.7496 17.5641ZM72.9222 37.4359C79.369 35.2137 83.6384 41.6239 88.6338 40.128C83.8092 34.9999 79.8813 29.1452 80.3937 22.3931C80.4364 22.0085 80.0522 21.752 79.7534 22.0085C77.2772 23.7179 75.5692 26.5383 75.0143 29.7435C71.5988 27.5212 67.5856 27.222 64.2981 28.5895C67.6709 30.9828 70.6168 33.9743 72.9222 37.4359Z" fill="#00623D"/>
</svg>
