<svg enable-background="new 0 0 100 100" viewBox="0 0 100 100" xmlns="http://www.w3.org/2000/svg"><g fill="#132a13"><path d="m40.64 50.18c-.54-.16-.97-.36-1.3-.61l.58-1.28c.31.23.69.41 1.12.55s.86.21 1.3.21c.48 0 .84-.07 1.07-.21s.35-.33.35-.57c0-.17-.07-.32-.2-.43-.14-.12-.31-.21-.52-.28s-.5-.15-.86-.23c-.56-.13-1.01-.26-1.37-.4-.36-.13-.66-.34-.91-.64-.25-.29-.38-.68-.38-1.17 0-.43.12-.81.35-1.16s.58-.62 1.04-.82 1.03-.3 1.7-.3c.47 0 .92.06 1.37.17s.84.27 1.17.48l-.52 1.29c-.68-.38-1.35-.58-2.03-.58-.47 0-.82.08-1.05.23s-.34.36-.34.61.13.44.39.56.66.24 1.2.36c.56.13 1.01.26 1.37.4.36.13.66.34.91.63s.38.67.38 1.16c0 .42-.12.8-.35 1.14-.23.35-.58.62-1.05.82s-1.04.3-1.7.3c-.62 0-1.18-.08-1.72-.23z"/><path d="m51.98 48.93v1.36h-5.67v-7.32h5.53v1.36h-3.84v1.59h3.4v1.32h-3.4v1.69z"/><path d="m53.19 42.97h1.69v5.94h3.67v1.38h-5.36z"/><path d="m65.43 48.93v1.36h-5.67v-7.32h5.53v1.36h-3.85v1.59h3.4v1.32h-3.4v1.69z"/><path d="m68.58 49.93c-.6-.32-1.08-.77-1.42-1.35-.35-.58-.52-1.22-.52-1.95s.17-1.37.52-1.95.82-1.02 1.42-1.35c.6-.32 1.28-.49 2.03-.49.63 0 1.21.11 1.72.33s.94.54 1.29.96l-1.09 1c-.49-.57-1.11-.86-1.84-.86-.45 0-.86.1-1.21.3-.36.2-.63.48-.83.83-.2.36-.3.76-.3 1.21s.1.86.3 1.21c.2.36.48.63.83.83.36.2.76.3 1.21.3.73 0 1.35-.29 1.84-.87l1.09 1c-.35.43-.78.75-1.3.97s-1.09.33-1.73.33c-.73.03-1.41-.13-2.01-.45z"/><path d="m77.18 44.27h-2.34v-1.38h6.38v1.38h-2.34v5.94h-1.69v-5.94z"/><path d="m39.47 57.01c-.09-.09-.13-.2-.13-.33s.04-.24.13-.33.19-.13.32-.13c.12 0 .23.04.32.13s.14.2.14.33-.05.24-.14.33-.2.14-.32.14c-.13 0-.24-.05-.32-.14z"/><path d="m42.51 56.89c-.32-.18-.58-.42-.76-.74s-.28-.67-.28-1.06.09-.74.28-1.06c.18-.32.44-.56.76-.74.33-.18.69-.27 1.09-.27.3 0 .58.05.84.15s.47.25.65.44l-.27.27c-.32-.32-.72-.48-1.2-.48-.32 0-.61.07-.88.22-.26.15-.47.35-.62.6-.15.26-.22.54-.22.86s.07.6.22.86.35.46.62.6c.26.15.56.22.88.22.49 0 .89-.16 1.2-.49l.27.27c-.18.19-.4.34-.65.44-.26.1-.54.15-.84.15-.4.03-.77-.06-1.09-.24z"/><path d="m50.27 53.06v4.06h-.42v-1.87h-2.54v1.87h-.43v-4.06h.43v1.81h2.54v-1.81z"/><path d="m55.34 56.75v.37h-2.87v-4.06h2.79v.37h-2.36v1.45h2.1v.37h-2.1v1.51h2.44z"/><path d="m59.77 56.04h-2.27l-.49 1.09h-.45l1.86-4.06h.42l1.86 4.06h-.45zm-.16-.35-.97-2.18-.98 2.18z"/><path d="m64.99 53.43c.29.25.44.59.44 1.02s-.15.77-.44 1.02-.7.37-1.22.37h-1.09v1.28h-.43v-4.06h1.52c.52 0 .93.12 1.22.37zm-.31 1.77c.22-.18.32-.43.32-.75 0-.33-.11-.58-.32-.76s-.52-.26-.92-.26h-1.08v2.03h1.08c.4 0 .71-.09.92-.26z"/></g><path d="m25.59 50v-6.78-6.78c-.01 0-.02 0-.02 0-3.74 0-6.78 3.03-6.78 6.78 0 3.74 3.03 6.78 6.78 6.78l.02 13.55c3.74 0 6.78-3.03 6.78-6.78-.01-3.74-3.04-6.77-6.78-6.77z" fill="#90a955"/><circle cx="29.9" cy="43.22" fill="#132a13" r="2.47"/><circle cx="21.26" cy="56.78" fill="#132a13" r="2.47"/></svg>