<?xml version="1.0" encoding="utf-8"?>
<!-- Generator: Adobe Illustrator 28.0.0, SVG Export Plug-In . SVG Version: 6.00 Build 0)  -->
<svg version="1.1" id="Layer_1" xmlns="http://www.w3.org/2000/svg" xmlns:xlink="http://www.w3.org/1999/xlink" x="0px" y="0px"
	 viewBox="0 0 100 100" style="enable-background:new 0 0 100 100;" xml:space="preserve">
<style type="text/css">
	.st0{fill:#132A13;}
	.st1{fill:#90A955;}
</style>
<g>
	<g>
		<g>
			<g>
				<path class="st0" d="M40.64,50.18c-0.54-0.16-0.97-0.36-1.3-0.61l0.58-1.28c0.31,0.23,0.69,0.41,1.12,0.55
					c0.43,0.14,0.86,0.21,1.3,0.21c0.48,0,0.84-0.07,1.07-0.21c0.23-0.14,0.35-0.33,0.35-0.57c0-0.17-0.07-0.32-0.2-0.43
					c-0.14-0.12-0.31-0.21-0.52-0.28c-0.21-0.07-0.5-0.15-0.86-0.23c-0.56-0.13-1.01-0.26-1.37-0.4c-0.36-0.13-0.66-0.34-0.91-0.64
					c-0.25-0.29-0.38-0.68-0.38-1.17c0-0.43,0.12-0.81,0.35-1.16s0.58-0.62,1.04-0.82c0.46-0.2,1.03-0.3,1.7-0.3
					c0.47,0,0.92,0.06,1.37,0.17c0.45,0.11,0.84,0.27,1.17,0.48l-0.52,1.29c-0.68-0.38-1.35-0.58-2.03-0.58
					c-0.47,0-0.82,0.08-1.05,0.23c-0.23,0.15-0.34,0.36-0.34,0.61c0,0.25,0.13,0.44,0.39,0.56c0.26,0.12,0.66,0.24,1.2,0.36
					c0.56,0.13,1.01,0.26,1.37,0.4c0.36,0.13,0.66,0.34,0.91,0.63c0.25,0.29,0.38,0.67,0.38,1.16c0,0.42-0.12,0.8-0.35,1.14
					c-0.23,0.35-0.58,0.62-1.05,0.82c-0.47,0.2-1.04,0.3-1.7,0.3C41.74,50.41,41.18,50.33,40.64,50.18z"/>
				<path class="st0" d="M51.98,48.93v1.36h-5.67v-7.32h5.53v1.36H48v1.59h3.4v1.32H48v1.69H51.98z"/>
				<path class="st0" d="M53.19,42.97h1.69v5.94h3.67v1.38h-5.36V42.97z"/>
				<path class="st0" d="M65.43,48.93v1.36h-5.67v-7.32h5.53v1.36h-3.85v1.59h3.4v1.32h-3.4v1.69H65.43z"/>
				<path class="st0" d="M68.58,49.93c-0.6-0.32-1.08-0.77-1.42-1.35c-0.35-0.58-0.52-1.22-0.52-1.95s0.17-1.37,0.52-1.95
					c0.35-0.58,0.82-1.02,1.42-1.35c0.6-0.32,1.28-0.49,2.03-0.49c0.63,0,1.21,0.11,1.72,0.33c0.51,0.22,0.94,0.54,1.29,0.96
					l-1.09,1c-0.49-0.57-1.11-0.86-1.84-0.86c-0.45,0-0.86,0.1-1.21,0.3c-0.36,0.2-0.63,0.48-0.83,0.83c-0.2,0.36-0.3,0.76-0.3,1.21
					c0,0.45,0.1,0.86,0.3,1.21c0.2,0.36,0.48,0.63,0.83,0.83c0.36,0.2,0.76,0.3,1.21,0.3c0.73,0,1.35-0.29,1.84-0.87l1.09,1
					c-0.35,0.43-0.78,0.75-1.3,0.97c-0.52,0.22-1.09,0.33-1.73,0.33C69.86,50.41,69.18,50.25,68.58,49.93z"/>
				<path class="st0" d="M77.18,44.27h-2.34v-1.38h6.38v1.38h-2.34v5.94h-1.69V44.27z"/>
			</g>
			<g>
				<path class="st0" d="M39.47,57.01c-0.09-0.09-0.13-0.2-0.13-0.33c0-0.13,0.04-0.24,0.13-0.33c0.09-0.09,0.19-0.13,0.32-0.13
					c0.12,0,0.23,0.04,0.32,0.13s0.14,0.2,0.14,0.33c0,0.13-0.05,0.24-0.14,0.33s-0.2,0.14-0.32,0.14
					C39.66,57.15,39.55,57.1,39.47,57.01z"/>
				<path class="st0" d="M42.51,56.89c-0.32-0.18-0.58-0.42-0.76-0.74c-0.18-0.32-0.28-0.67-0.28-1.06s0.09-0.74,0.28-1.06
					c0.18-0.32,0.44-0.56,0.76-0.74c0.33-0.18,0.69-0.27,1.09-0.27c0.3,0,0.58,0.05,0.84,0.15c0.26,0.1,0.47,0.25,0.65,0.44
					l-0.27,0.27c-0.32-0.32-0.72-0.48-1.2-0.48c-0.32,0-0.61,0.07-0.88,0.22c-0.26,0.15-0.47,0.35-0.62,0.6
					c-0.15,0.26-0.22,0.54-0.22,0.86c0,0.32,0.07,0.6,0.22,0.86c0.15,0.26,0.35,0.46,0.62,0.6c0.26,0.15,0.56,0.22,0.88,0.22
					c0.49,0,0.89-0.16,1.2-0.49l0.27,0.27c-0.18,0.19-0.4,0.34-0.65,0.44c-0.26,0.1-0.54,0.15-0.84,0.15
					C43.2,57.16,42.83,57.07,42.51,56.89z"/>
				<path class="st0" d="M50.27,53.06v4.06h-0.42v-1.87h-2.54v1.87h-0.43v-4.06h0.43v1.81h2.54v-1.81H50.27z"/>
				<path class="st0" d="M55.34,56.75v0.37h-2.87v-4.06h2.79v0.37h-2.36v1.45H55v0.37h-2.1v1.51H55.34z"/>
				<path class="st0" d="M59.77,56.04H57.5l-0.49,1.09h-0.45l1.86-4.06h0.42l1.86,4.06h-0.45L59.77,56.04z M59.61,55.69l-0.97-2.18
					l-0.98,2.18H59.61z"/>
				<path class="st0" d="M64.99,53.43c0.29,0.25,0.44,0.59,0.44,1.02c0,0.43-0.15,0.77-0.44,1.02c-0.29,0.25-0.7,0.37-1.22,0.37
					h-1.09v1.28h-0.43v-4.06h1.52C64.29,53.06,64.7,53.18,64.99,53.43z M64.68,55.2C64.9,55.02,65,54.77,65,54.45
					c0-0.33-0.11-0.58-0.32-0.76c-0.21-0.18-0.52-0.26-0.92-0.26h-1.08v2.03h1.08C64.16,55.46,64.47,55.37,64.68,55.2z"/>
			</g>
		</g>
	</g>
	<g>
		<path class="st1" d="M25.59,50v-6.78v-6.78c-0.01,0-0.02,0-0.02,0c-3.74,0-6.78,3.03-6.78,6.78c0,3.74,3.03,6.78,6.78,6.78
			l0.02,13.55c3.74,0,6.78-3.03,6.78-6.78C32.36,53.03,29.33,50,25.59,50z"/>
		<g>
			<g>
				<circle class="st0" cx="29.9" cy="43.22" r="2.47"/>
				<circle class="st0" cx="21.26" cy="56.78" r="2.47"/>
			</g>
		</g>
	</g>
</g>
</svg>
